<svg xmlns="http://www.w3.org/2000/svg" viewBox="-118.75 -90.48 237.49 172.47" fill="none" stroke-linejoin="round" stroke-linecap="round" preserveAspectRatio="xMidYMid meet"><path d="M 44.75 63.99 L 100.75 -4.59 L 100.75 -13.08 L -44.75 -72.48 L -100.75 -3.89 L -100.75 4.59 Z" stroke="#e8e6e3" stroke-width="3"></path><path d="M 44.75 55.51 L -100.75 -3.89 M 44.75 55.51 L 100.75 -13.08 M 44.75 55.51 L 44.75 63.99 " stroke="#e8e6e3" stroke-width="3"></path><circle cx="90.28" cy="-10.95" r="2.40" fill="oklch(0.60 0.19 30)" stroke="none"></circle><path d="M -34.45 -50.44 L -49.17 -56.45 L -40.67 -66.86 L -25.95 -60.85 Z" fill="#14161b" stroke="none"></path><path d="M -34.45 -43.37 L -49.17 -49.38 L -49.17 -56.45 L -34.45 -50.44 Z" fill="#14161b" stroke="none"></path><path d="M -25.95 -53.78 L -34.45 -43.37 L -34.45 -50.44 L -25.95 -60.85 Z" fill="#14161b" stroke="none"></path><path d="M -34.45 -43.37 L -25.95 -53.78 L -25.95 -60.85 L -40.67 -66.86 L -49.17 -56.45 L -49.17 -49.38 Z" stroke="#e8e6e3" stroke-width="2"></path><path d="M -34.45 -50.44 L -49.17 -56.45 M -34.45 -50.44 L -25.95 -60.85 M -34.45 -50.44 L -34.45 -43.37 " stroke="#e8e6e3" stroke-width="2"></path><path d="M -16.26 -43.02 L -30.98 -49.03 L -22.48 -59.44 L -7.76 -53.43 Z" fill="#14161b" stroke="none"></path><path d="M -16.26 -35.94 L -30.98 -41.96 L -30.98 -49.03 L -16.26 -43.02 Z" fill="#14161b" stroke="none"></path><path d="M -7.76 -46.36 L -16.26 -35.94 L -16.26 -43.02 L -7.76 -53.43 Z" fill="#14161b" stroke="none"></path><path d="M -16.26 -35.94 L -7.76 -46.36 L -7.76 -53.43 L -22.48 -59.44 L -30.98 -49.03 L -30.98 -41.96 Z" stroke="#e8e6e3" stroke-width="2"></path><path d="M -16.26 -43.02 L -30.98 -49.03 M -16.26 -43.02 L -7.76 -53.43 M -16.26 -43.02 L -16.26 -35.94 " stroke="#e8e6e3" stroke-width="2"></path><path d="M -41.39 -32.04 L -56.11 -38.05 L -47.61 -48.46 L -32.89 -42.45 Z" fill="#14161b" stroke="none"></path><path d="M -41.39 -24.97 L -56.11 -30.98 L -56.11 -38.05 L -41.39 -32.04 Z" fill="#14161b" stroke="none"></path><path d="M -32.89 -35.38 L -41.39 -24.97 L -41.39 -32.04 L -32.89 -42.45 Z" fill="#14161b" stroke="none"></path><path d="M -41.39 -24.97 L -32.89 -35.38 L -32.89 -42.45 L -47.61 -48.46 L -56.11 -38.05 L -56.11 -30.98 Z" stroke="#e8e6e3" stroke-width="2"></path><path d="M -41.39 -32.04 L -56.11 -38.05 M -41.39 -32.04 L -32.89 -42.45 M -41.39 -32.04 L -41.39 -24.97 " stroke="#e8e6e3" stroke-width="2"></path><path d="M 1.92 -35.59 L -12.80 -41.60 L -4.30 -52.01 L 10.42 -46.00 Z" fill="#14161b" stroke="none"></path><path d="M 1.92 -28.52 L -12.80 -34.53 L -12.80 -41.60 L 1.92 -35.59 Z" fill="#14161b" stroke="none"></path><path d="M 10.42 -38.93 L 1.92 -28.52 L 1.92 -35.59 L 10.42 -46.00 Z" fill="#14161b" stroke="none"></path><path d="M 1.92 -28.52 L 10.42 -38.93 L 10.42 -46.00 L -4.30 -52.01 L -12.80 -41.60 L -12.80 -34.53 Z" stroke="#e8e6e3" stroke-width="2"></path><path d="M 1.92 -35.59 L -12.80 -41.60 M 1.92 -35.59 L 10.42 -46.00 M 1.92 -35.59 L 1.92 -28.52 " stroke="#e8e6e3" stroke-width="2"></path><path d="M -60.45 -18.60 L -75.17 -24.61 L -66.67 -35.02 L -51.95 -29.01 Z" fill="#14161b" stroke="none"></path><path d="M -60.45 -11.53 L -75.17 -17.54 L -75.17 -24.61 L -60.45 -18.60 Z" fill="#14161b" stroke="none"></path><path d="M -51.95 -21.94 L -60.45 -11.53 L -60.45 -18.60 L -51.95 -29.01 Z" fill="#14161b" stroke="none"></path><path d="M -60.45 -11.53 L -51.95 -21.94 L -51.95 -29.01 L -66.67 -35.02 L -75.17 -24.61 L -75.17 -17.54 Z" stroke="#e8e6e3" stroke-width="2"></path><path d="M -60.45 -18.60 L -75.17 -24.61 M -60.45 -18.60 L -51.95 -29.01 M -60.45 -18.60 L -60.45 -11.53 " stroke="#e8e6e3" stroke-width="2"></path><path d="M -23.20 -24.62 L -37.92 -30.63 L -29.42 -41.04 L -14.70 -35.03 Z" fill="#14161b" stroke="none"></path><path d="M -23.20 -17.55 L -37.92 -23.56 L -37.92 -30.63 L -23.20 -24.62 Z" fill="#14161b" stroke="none"></path><path d="M -14.70 -27.96 L -23.20 -17.55 L -23.20 -24.62 L -14.70 -35.03 Z" fill="#14161b" stroke="none"></path><path d="M -23.20 -17.55 L -14.70 -27.96 L -14.70 -35.03 L -29.42 -41.04 L -37.92 -30.63 L -37.92 -23.56 Z" stroke="#e8e6e3" stroke-width="2"></path><path d="M -23.20 -24.62 L -37.92 -30.63 M -23.20 -24.62 L -14.70 -35.03 M -23.20 -24.62 L -23.20 -17.55 " stroke="#e8e6e3" stroke-width="2"></path><path d="M 20.11 -28.17 L 5.39 -34.18 L 13.89 -44.59 L 28.61 -38.58 Z" fill="#14161b" stroke="none"></path><path d="M 20.11 -21.10 L 5.39 -27.11 L 5.39 -34.18 L 20.11 -28.17 Z" fill="#14161b" stroke="none"></path><path d="M 28.61 -31.51 L 20.11 -21.10 L 20.11 -28.17 L 28.61 -38.58 Z" fill="#14161b" stroke="none"></path><path d="M 20.11 -21.10 L 28.61 -31.51 L 28.61 -38.58 L 13.89 -44.59 L 5.39 -34.18 L 5.39 -27.11 Z" stroke="#e8e6e3" stroke-width="2"></path><path d="M 20.11 -28.17 L 5.39 -34.18 M 20.11 -28.17 L 28.61 -38.58 M 20.11 -28.17 L 20.11 -21.10 " stroke="#e8e6e3" stroke-width="2"></path><path d="M -42.26 -11.17 L -56.98 -17.18 L -48.48 -27.59 L -33.76 -21.58 Z" fill="#14161b" stroke="none"></path><path d="M -42.26 -4.10 L -56.98 -10.11 L -56.98 -17.18 L -42.26 -11.17 Z" fill="#14161b" stroke="none"></path><path d="M -33.76 -14.51 L -42.26 -4.10 L -42.26 -11.17 L -33.76 -21.58 Z" fill="#14161b" stroke="none"></path><path d="M -42.26 -4.10 L -33.76 -14.51 L -33.76 -21.58 L -48.48 -27.59 L -56.98 -17.18 L -56.98 -10.11 Z" stroke="#e8e6e3" stroke-width="2"></path><path d="M -42.26 -11.17 L -56.98 -17.18 M -42.26 -11.17 L -33.76 -21.58 M -42.26 -11.17 L -42.26 -4.10 " stroke="#e8e6e3" stroke-width="2"></path><path d="M -5.01 -17.19 L -19.74 -23.21 L -11.24 -33.62 L 3.49 -27.61 Z" fill="#14161b" stroke="none"></path><path d="M -5.01 -10.12 L -19.74 -16.13 L -19.74 -23.21 L -5.01 -17.19 Z" fill="#14161b" stroke="none"></path><path d="M 3.49 -20.53 L -5.01 -10.12 L -5.01 -17.19 L 3.49 -27.61 Z" fill="#14161b" stroke="none"></path><path d="M -5.01 -10.12 L 3.49 -20.53 L 3.49 -27.61 L -11.24 -33.62 L -19.74 -23.21 L -19.74 -16.13 Z" stroke="#e8e6e3" stroke-width="2"></path><path d="M -5.01 -17.19 L -19.74 -23.21 M -5.01 -17.19 L 3.49 -27.61 M -5.01 -17.19 L -5.01 -10.12 " stroke="#e8e6e3" stroke-width="2"></path><path d="M -65.95 -1.25 L -85.01 -9.03 L -76.51 -19.44 L -57.45 -11.66 Z" fill="#14161b" stroke="none"></path><path d="M -65.95 5.82 L -85.01 -1.96 L -85.01 -9.03 L -65.95 -1.25 Z" fill="#14161b" stroke="none"></path><path d="M -57.45 -4.59 L -65.95 5.82 L -65.95 -1.25 L -57.45 -11.66 Z" fill="#14161b" stroke="none"></path><path d="M -65.95 5.82 L -57.45 -4.59 L -57.45 -11.66 L -76.51 -19.44 L -85.01 -9.03 L -85.01 -1.96 Z" stroke="#e8e6e3" stroke-width="2"></path><path d="M -65.95 -1.25 L -85.01 -9.03 M -65.95 -1.25 L -57.45 -11.66 M -65.95 -1.25 L -65.95 5.82 " stroke="#e8e6e3" stroke-width="2"></path><path d="M 38.30 -20.74 L 23.58 -26.75 L 32.08 -37.16 L 46.80 -31.15 Z" fill="#14161b" stroke="none"></path><path d="M 38.30 -13.67 L 23.58 -19.68 L 23.58 -26.75 L 38.30 -20.74 Z" fill="#14161b" stroke="none"></path><path d="M 46.80 -24.08 L 38.30 -13.67 L 38.30 -20.74 L 46.80 -31.15 Z" fill="#14161b" stroke="none"></path><path d="M 38.30 -13.67 L 46.80 -24.08 L 46.80 -31.15 L 32.08 -37.16 L 23.58 -26.75 L 23.58 -19.68 Z" stroke="#e8e6e3" stroke-width="2"></path><path d="M 38.30 -20.74 L 23.58 -26.75 M 38.30 -20.74 L 46.80 -31.15 M 38.30 -20.74 L 38.30 -13.67 " stroke="#e8e6e3" stroke-width="2"></path><path d="M -24.08 -3.75 L -38.80 -9.76 L -30.30 -20.17 L -15.58 -14.16 Z" fill="#14161b" stroke="none"></path><path d="M -24.08 3.32 L -38.80 -2.69 L -38.80 -9.76 L -24.08 -3.75 Z" fill="#14161b" stroke="none"></path><path d="M -15.58 -7.09 L -24.08 3.32 L -24.08 -3.75 L -15.58 -14.16 Z" fill="#14161b" stroke="none"></path><path d="M -24.08 3.32 L -15.58 -7.09 L -15.58 -14.16 L -30.30 -20.17 L -38.80 -9.76 L -38.80 -2.69 Z" stroke="#e8e6e3" stroke-width="2"></path><path d="M -24.08 -3.75 L -38.80 -9.76 M -24.08 -3.75 L -15.58 -14.16 M -24.08 -3.75 L -24.08 3.32 " stroke="#e8e6e3" stroke-width="2"></path><path d="M 13.17 -9.77 L -1.55 -15.78 L 6.95 -26.19 L 21.67 -20.18 Z" fill="#14161b" stroke="none"></path><path d="M 13.17 -2.70 L -1.55 -8.71 L -1.55 -15.78 L 13.17 -9.77 Z" fill="#14161b" stroke="none"></path><path d="M 21.67 -13.11 L 13.17 -2.70 L 13.17 -9.77 L 21.67 -20.18 Z" fill="#14161b" stroke="none"></path><path d="M 13.17 -2.70 L 21.67 -13.11 L 21.67 -20.18 L 6.95 -26.19 L -1.55 -15.78 L -1.55 -8.71 Z" stroke="#e8e6e3" stroke-width="2"></path><path d="M 13.17 -9.77 L -1.55 -15.78 M 13.17 -9.77 L 21.67 -20.18 M 13.17 -9.77 L 13.17 -2.70 " stroke="#e8e6e3" stroke-width="2"></path><path d="M 56.48 -13.32 L 41.76 -19.33 L 50.26 -29.74 L 64.98 -23.73 Z" fill="#14161b" stroke="none"></path><path d="M 56.48 -6.25 L 41.76 -12.26 L 41.76 -19.33 L 56.48 -13.32 Z" fill="#14161b" stroke="none"></path><path d="M 64.98 -16.66 L 56.48 -6.25 L 56.48 -13.32 L 64.98 -23.73 Z" fill="#14161b" stroke="none"></path><path d="M 56.48 -6.25 L 64.98 -16.66 L 64.98 -23.73 L 50.26 -29.74 L 41.76 -19.33 L 41.76 -12.26 Z" stroke="#e8e6e3" stroke-width="2"></path><path d="M 56.48 -13.32 L 41.76 -19.33 M 56.48 -13.32 L 64.98 -23.73 M 56.48 -13.32 L 56.48 -6.25 " stroke="#e8e6e3" stroke-width="2"></path><path d="M -5.89 3.68 L -20.61 -2.33 L -12.11 -12.74 L 2.61 -6.73 Z" fill="#14161b" stroke="none"></path><path d="M -5.89 10.75 L -20.61 4.74 L -20.61 -2.33 L -5.89 3.68 Z" fill="#14161b" stroke="none"></path><path d="M 2.61 0.34 L -5.89 10.75 L -5.89 3.68 L 2.61 -6.73 Z" fill="#14161b" stroke="none"></path><path d="M -5.89 10.75 L 2.61 0.34 L 2.61 -6.73 L -12.11 -12.74 L -20.61 -2.33 L -20.61 4.74 Z" stroke="#e8e6e3" stroke-width="2"></path><path d="M -5.89 3.68 L -20.61 -2.33 M -5.89 3.68 L 2.61 -6.73 M -5.89 3.68 L -5.89 10.75 " stroke="#e8e6e3" stroke-width="2"></path><path d="M 31.36 -2.35 L 16.64 -8.36 L 25.14 -18.77 L 39.86 -12.76 Z" fill="oklch(0.55 0.17 256)" stroke="none"></path><path d="M 31.36 4.73 L 16.64 -1.28 L 16.64 -8.36 L 31.36 -2.35 Z" fill="#14161b" stroke="none"></path><path d="M 39.86 -5.68 L 31.36 4.73 L 31.36 -2.35 L 39.86 -12.76 Z" fill="#14161b" stroke="none"></path><path d="M 31.36 4.73 L 39.86 -5.68 L 39.86 -12.76 L 25.14 -18.77 L 16.64 -8.36 L 16.64 -1.28 Z" stroke="#e8e6e3" stroke-width="2"></path><path d="M 31.36 -2.35 L 16.64 -8.36 M 31.36 -2.35 L 39.86 -12.76 M 31.36 -2.35 L 31.36 4.73 " stroke="#e8e6e3" stroke-width="2"></path><path d="M 74.67 -5.89 L 59.95 -11.90 L 68.45 -22.31 L 83.17 -16.30 Z" fill="#14161b" stroke="none"></path><path d="M 74.67 1.18 L 59.95 -4.83 L 59.95 -11.90 L 74.67 -5.89 Z" fill="#14161b" stroke="none"></path><path d="M 83.17 -9.23 L 74.67 1.18 L 74.67 -5.89 L 83.17 -16.30 Z" fill="#14161b" stroke="none"></path><path d="M 74.67 1.18 L 83.17 -9.23 L 83.17 -16.30 L 68.45 -22.31 L 59.95 -11.90 L 59.95 -4.83 Z" stroke="#e8e6e3" stroke-width="2"></path><path d="M 74.67 -5.89 L 59.95 -11.90 M 74.67 -5.89 L 83.17 -16.30 M 74.67 -5.89 L 74.67 1.18 " stroke="#e8e6e3" stroke-width="2"></path><path d="M 12.30 11.10 L -2.42 5.09 L 6.08 -5.32 L 20.80 0.69 Z" fill="#14161b" stroke="none"></path><path d="M 12.30 18.17 L -2.42 12.16 L -2.42 5.09 L 12.30 11.10 Z" fill="#14161b" stroke="none"></path><path d="M 20.80 7.76 L 12.30 18.17 L 12.30 11.10 L 20.80 0.69 Z" fill="#14161b" stroke="none"></path><path d="M 12.30 18.17 L 20.80 7.76 L 20.80 0.69 L 6.08 -5.32 L -2.42 5.09 L -2.42 12.16 Z" stroke="#e8e6e3" stroke-width="2"></path><path d="M 12.30 11.10 L -2.42 5.09 M 12.30 11.10 L 20.80 0.69 M 12.30 11.10 L 12.30 18.17 " stroke="#e8e6e3" stroke-width="2"></path><path d="M 49.55 5.08 L 34.82 -0.93 L 43.32 -11.34 L 58.05 -5.33 Z" fill="#14161b" stroke="none"></path><path d="M 49.55 12.15 L 34.82 6.14 L 34.82 -0.93 L 49.55 5.08 Z" fill="#14161b" stroke="none"></path><path d="M 58.05 1.74 L 49.55 12.15 L 49.55 5.08 L 58.05 -5.33 Z" fill="#14161b" stroke="none"></path><path d="M 49.55 12.15 L 58.05 1.74 L 58.05 -5.33 L 43.32 -11.34 L 34.82 -0.93 L 34.82 6.14 Z" stroke="#e8e6e3" stroke-width="2"></path><path d="M 49.55 5.08 L 34.82 -0.93 M 49.55 5.08 L 58.05 -5.33 M 49.55 5.08 L 49.55 12.15 " stroke="#e8e6e3" stroke-width="2"></path><path d="M 4.19 27.39 L -54.69 3.35 L -46.19 -7.06 L 12.69 16.98 Z" fill="#14161b" stroke="none"></path><path d="M 4.19 34.46 L -54.69 10.42 L -54.69 3.35 L 4.19 27.39 Z" fill="#14161b" stroke="none"></path><path d="M 12.69 24.05 L 4.19 34.46 L 4.19 27.39 L 12.69 16.98 Z" fill="#14161b" stroke="none"></path><path d="M 4.19 34.46 L 12.69 24.05 L 12.69 16.98 L -46.19 -7.06 L -54.69 3.35 L -54.69 10.42 Z" stroke="#e8e6e3" stroke-width="2"></path><path d="M 4.19 27.39 L -54.69 3.35 M 4.19 27.39 L 12.69 16.98 M 4.19 27.39 L 4.19 34.46 " stroke="#e8e6e3" stroke-width="2"></path><path d="M 30.48 18.53 L 15.76 12.52 L 24.26 2.11 L 38.98 8.12 Z" fill="#14161b" stroke="none"></path><path d="M 30.48 25.60 L 15.76 19.59 L 15.76 12.52 L 30.48 18.53 Z" fill="#14161b" stroke="none"></path><path d="M 38.98 15.19 L 30.48 25.60 L 30.48 18.53 L 38.98 8.12 Z" fill="#14161b" stroke="none"></path><path d="M 30.48 25.60 L 38.98 15.19 L 38.98 8.12 L 24.26 2.11 L 15.76 12.52 L 15.76 19.59 Z" stroke="#e8e6e3" stroke-width="2"></path><path d="M 30.48 18.53 L 15.76 12.52 M 30.48 18.53 L 38.98 8.12 M 30.48 18.53 L 30.48 25.60 " stroke="#e8e6e3" stroke-width="2"></path><path d="M 48.67 25.95 L 33.95 19.94 L 42.45 9.53 L 57.17 15.54 Z" fill="#14161b" stroke="none"></path><path d="M 48.67 33.02 L 33.95 27.01 L 33.95 19.94 L 48.67 25.95 Z" fill="#14161b" stroke="none"></path><path d="M 57.17 22.61 L 48.67 33.02 L 48.67 25.95 L 57.17 15.54 Z" fill="#14161b" stroke="none"></path><path d="M 48.67 33.02 L 57.17 22.61 L 57.17 15.54 L 42.45 9.53 L 33.95 19.94 L 33.95 27.01 Z" stroke="#e8e6e3" stroke-width="2"></path><path d="M 48.67 25.95 L 33.95 19.94 M 48.67 25.95 L 57.17 15.54 M 48.67 25.95 L 48.67 33.02 " stroke="#e8e6e3" stroke-width="2"></path><path d="M 34.51 39.76 L 15.45 31.99 L 23.95 21.58 L 43.01 29.35 Z" fill="#14161b" stroke="none"></path><path d="M 34.51 46.83 L 15.45 39.06 L 15.45 31.99 L 34.51 39.76 Z" fill="#14161b" stroke="none"></path><path d="M 43.01 36.42 L 34.51 46.83 L 34.51 39.76 L 43.01 29.35 Z" fill="#14161b" stroke="none"></path><path d="M 34.51 46.83 L 43.01 36.42 L 43.01 29.35 L 23.95 21.58 L 15.45 31.99 L 15.45 39.06 Z" stroke="#e8e6e3" stroke-width="2"></path><path d="M 34.51 39.76 L 15.45 31.99 M 34.51 39.76 L 43.01 29.35 M 34.51 39.76 L 34.51 46.83 " stroke="#e8e6e3" stroke-width="2"></path></svg>
